<svg xmlns="http://www.w3.org/2000/svg" viewBox="0 0 720 620" font-family="Arial,sans-serif">
<rect width="720" height="620" fill="#fafafa"/>
<text x="360" y="28" text-anchor="middle" font-size="16" font-weight="700">İZOMETRİK — net kroki cm (AI değil)</text>
<polygon points="220.0,400.0 462.7,540.1 219.6,680.5 -23.1,540.4" fill="#eee" stroke="#111" stroke-width="2"/>
<polygon points="310.1,614.0 322.4,621.1 322.4,583.1 310.1,576.0" fill="#111" stroke="#000" opacity="0.95"/>
<polygon points="375.5,590.5 322.4,621.1 322.4,583.1 375.5,552.5" fill="#111" stroke="#000" opacity="0.85"/>
<polygon points="363.2,545.3 375.5,552.5 322.4,583.1 310.1,576.0" fill="#111" stroke="#000"/>
<polygon points="64.9,591.2 144.7,637.3 144.7,532.8 64.9,486.7" fill="#9ec9e0" stroke="#000" opacity="0.95"/>
<polygon points="148.0,635.4 144.7,637.3 144.7,532.8 148.0,530.9" fill="#9ec9e0" stroke="#000" opacity="0.85"/>
<polygon points="68.2,484.8 148.0,530.9 144.7,532.8 64.9,486.7" fill="#9ec9e0" stroke="#000"/>
<polygon points="-18.2,541.3 64.1,588.8 64.1,517.6 -18.2,470.1" fill="#1a1a1a" stroke="#000" opacity="0.95"/>
<polygon points="113.5,560.3 64.1,588.8 64.1,517.6 113.5,489.1" fill="#1a1a1a" stroke="#000" opacity="0.85"/>
<polygon points="31.2,441.6 113.5,489.1 64.1,517.6 -18.2,470.1" fill="#1a1a1a" stroke="#000"/>
<polygon points="51.8,519.9 101.1,548.4 101.1,443.9 51.8,415.4" fill="#333" stroke="#000" opacity="0.95"/>
<polygon points="150.5,519.9 101.1,548.4 101.1,443.9 150.5,415.4" fill="#333" stroke="#000" opacity="0.85"/>
<polygon points="101.1,386.9 150.5,415.4 101.1,443.9 51.8,415.4" fill="#333" stroke="#000"/>
<polygon points="29.5,510.0 64.1,529.9 64.1,453.9 29.5,434.0" fill="#1a1a1a" stroke="#000" opacity="0.95"/>
<polygon points="162.8,472.9 64.1,529.9 64.1,453.9 162.8,396.9" fill="#1a1a1a" stroke="#000" opacity="0.85"/>
<polygon points="128.3,377.0 162.8,396.9 64.1,453.9 29.5,434.0" fill="#1a1a1a" stroke="#000"/>
<polygon points="160.4,641.5 222.1,677.2 222.1,601.2 160.4,565.5" fill="#222" stroke="#000" opacity="0.95"/>
<polygon points="316.7,622.5 222.1,677.2 222.1,601.2 316.7,546.5" fill="#222" stroke="#000" opacity="0.85"/>
<polygon points="255.0,510.9 316.7,546.5 222.1,601.2 160.4,565.5" fill="#222" stroke="#000"/>
<polygon points="84.3,530.6 199.4,597.1 199.4,595.2 84.3,528.7" fill="#ccc" stroke="#000" opacity="0.95"/>
<polygon points="298.2,540.1 199.4,597.1 199.4,595.2 298.2,538.2" fill="#ccc" stroke="#000" opacity="0.85"/>
<polygon points="183.0,471.7 298.2,538.2 199.4,595.2 84.3,528.7" fill="#ccc" stroke="#000"/>
<text x="360" y="580" text-anchor="middle" font-size="12" fill="#555">W=295 D=295.5 H=255 · kapı=106 cam=97 balkon=93.5</text>
<text x="360" y="600" text-anchor="middle" font-size="11" fill="#8a1f1f">Masa cam solu · TV sol · oturma sağ girinti</text>
</svg>